<!DOCTYPE svg PUBLIC "-//W3C//DTD SVG 20010904//EN" "http://www.w3.org/TR/2001/REC-SVG-20010904/DTD/svg10.dtd">
<svg version="1.0" xmlns="http://www.w3.org/2000/svg" width="238px" height="202px" viewBox="0 0 2380 2020" preserveAspectRatio="xMidYMid meet">
<g id="layer101" fill="#144733" stroke="none">
 <path d="M998 1769 c-284 -23 -592 -108 -652 -180 -31 -36 -41 -70 -66 -220 -33 -202 -43 -355 -37 -591 7 -309 25 -386 101 -422 46 -22 258 -72 396 -93 165 -26 672 -25 845 0 146 22 339 62 397 83 90 32 120 88 137 259 34 337 16 685 -46 908 -23 84 -54 111 -171 147 -304 93 -626 132 -904 109z m561 -49 c145 -25 359 -82 418 -111 27 -13 47 -32 58 -56 21 -44 51 -188 64 -315 22 -196 10 -646 -20 -760 -16 -62 -53 -96 -127 -118 -341 -101 -895 -129 -1272 -64 -119 20 -286 61 -324 79 -74 35 -91 127 -91 480 0 263 7 348 46 561 26 143 41 167 127 206 77 35 290 91 407 107 44 6 94 13 110 15 17 2 131 3 255 1 178 -2 251 -7 349 -25z"/>
 <path d="M1080 1727 c-3 -2 -41 -7 -85 -11 -78 -6 -110 -9 -190 -22 -51 -7 -261 -62 -283 -73 -10 -5 -30 -15 -47 -22 -65 -28 -94 -58 -109 -112 -42 -146 -68 -395 -68 -637 1 -137 3 -175 17 -295 11 -92 35 -135 88 -159 57 -26 292 -78 412 -91 230 -25 450 -25 695 0 170 17 437 77 474 106 32 25 65 98 71 158 40 363 15 803 -55 955 -21 47 -63 73 -163 101 -29 8 -77 21 -107 29 -90 26 -233 51 -355 62 -91 8 -290 16 -295 11z"/>
 </g>
<g id="layer102" fill="#4e7261" stroke="none">
 <path d="M998 1769 c-284 -23 -592 -108 -652 -180 -31 -36 -41 -70 -66 -220 -33 -202 -43 -355 -37 -591 7 -309 25 -386 101 -422 46 -22 258 -72 396 -93 165 -26 672 -25 845 0 146 22 339 62 397 83 90 32 120 88 137 259 34 337 16 685 -46 908 -23 84 -54 111 -171 147 -304 93 -626 132 -904 109z m561 -49 c145 -25 359 -82 418 -111 27 -13 47 -32 58 -56 21 -44 51 -188 64 -315 22 -196 10 -646 -20 -760 -16 -62 -53 -96 -127 -118 -341 -101 -895 -129 -1272 -64 -119 20 -286 61 -324 79 -74 35 -91 127 -91 480 0 263 7 348 46 561 26 143 41 167 127 206 77 35 290 91 407 107 44 6 94 13 110 15 17 2 131 3 255 1 178 -2 251 -7 349 -25z"/>
 <path d="M1020 1664 c-19 -2 -79 -9 -132 -15 l-98 -11 0 -29 c0 -50 37 -139 82 -196 24 -31 49 -65 55 -77 7 -11 13 -16 13 -9 0 7 6 10 14 7 8 -3 17 -1 21 5 8 14 52 14 60 1 4 -6 -7 -10 -24 -10 -38 0 -41 -17 -5 -22 33 -4 56 -34 35 -47 -10 -7 -6 -9 13 -8 27 2 29 12 10 80 -6 20 11 23 19 3 3 -7 8 -33 12 -57 l7 -44 135 -55 136 -55 -128 -5 -127 -5 1 -195 1 -195 65 -3 64 -3 3 143 3 143 95 5 95 5 3 38 c3 30 7 37 18 33 9 -3 16 -6 17 -6 1 0 2 -81 1 -180 l-1 -180 64 0 63 0 0 139 c0 77 4 142 9 145 8 5 41 -15 108 -63 21 -15 22 -24 23 -119 l0 -103 63 3 c53 3 62 6 59 21 -2 9 2 17 8 17 11 0 90 -155 90 -177 0 -7 4 -13 9 -13 29 0 34 494 7 683 -19 133 -46 229 -72 258 -22 25 -205 83 -359 114 -178 36 -394 51 -535 39z"/>
 <path d="M520 920 l0 -201 61 3 60 3 0 195 0 195 -60 3 -61 3 0 -201z"/>
 <path d="M720 1102 c-18 -15 -24 -33 -30 -98 -4 -43 -4 -117 0 -163 11 -120 12 -121 201 -121 166 0 161 -3 135 70 l-13 35 -104 5 -104 5 0 85 0 85 67 3 c65 3 68 2 74 -23 3 -14 4 -31 1 -39 -9 -22 15 -36 72 -43 l51 -6 0 77 c0 80 -16 128 -45 140 -9 3 -77 6 -150 6 -113 0 -136 -3 -155 -18z"/>
 </g>
<g id="layer103" fill="#e06a1b" stroke="none">
 <path d="M998 1769 c-284 -23 -592 -108 -652 -180 -31 -36 -41 -70 -66 -220 -33 -202 -43 -355 -37 -591 7 -309 25 -386 101 -422 46 -22 258 -72 396 -93 165 -26 672 -25 845 0 146 22 339 62 397 83 90 32 120 88 137 259 34 337 16 685 -46 908 -23 84 -54 111 -171 147 -304 93 -626 132 -904 109z m561 -49 c145 -25 359 -82 418 -111 27 -13 47 -32 58 -56 21 -44 51 -188 64 -315 22 -196 10 -646 -20 -760 -16 -62 -53 -96 -127 -118 -341 -101 -895 -129 -1272 -64 -119 20 -286 61 -324 79 -74 35 -91 127 -91 480 0 263 7 348 46 561 26 143 41 167 127 206 77 35 290 91 407 107 44 6 94 13 110 15 17 2 131 3 255 1 178 -2 251 -7 349 -25z"/>
 <path d="M520 920 l0 -201 61 3 60 3 0 195 0 195 -60 3 -61 3 0 -201z"/>
 <path d="M720 1102 c-18 -15 -24 -33 -30 -98 -4 -43 -4 -117 0 -163 11 -120 12 -121 201 -121 166 0 161 -3 135 70 l-13 35 -104 5 -104 5 0 85 0 85 67 3 c65 3 68 2 74 -23 3 -14 4 -31 1 -39 -9 -22 15 -36 72 -43 l51 -6 0 77 c0 80 -16 128 -45 140 -9 3 -77 6 -150 6 -113 0 -136 -3 -155 -18z"/>
 <path d="M1119 1113 c0 -5 0 -93 0 -198 l1 -190 65 -3 64 -3 3 143 3 143 95 5 95 5 0 50 0 50 -162 3 c-90 1 -163 -1 -164 -5z"/>
 <path d="M1509 1101 c-24 -19 -24 -23 -25 -200 l-1 -181 63 0 63 0 3 143 3 142 65 0 65 0 3 -143 3 -143 60 3 60 3 0 178 c0 156 -2 181 -17 198 -15 17 -32 19 -169 19 -136 0 -155 -2 -176 -19z"/>
 </g>
<g id="layer104" fill="#df7356" stroke="none">
 <path d="M520 815 l0 -96 63 3 c34 2 61 6 60 11 -2 4 -3 45 -3 92 l0 85 -60 0 -60 0 0 -95z"/>
 <path d="M692 834 c5 -111 10 -114 199 -114 166 0 161 -3 135 70 l-13 35 -104 5 -104 5 -3 38 -3 37 -56 0 -55 0 4 -76z"/>
 <path d="M1120 825 c0 -47 -1 -88 -2 -92 -2 -5 27 -9 65 -11 l67 -3 0 96 0 95 -65 0 -65 0 0 -85z"/>
 <path d="M1490 883 c0 -16 -3 -58 -7 -95 l-6 -68 67 0 66 0 0 95 0 95 -60 0 c-59 0 -60 -1 -60 -27z"/>
 <path d="M1750 815 l0 -96 63 3 c34 2 61 6 60 11 -2 4 -3 45 -3 92 l0 85 -60 0 -60 0 0 -95z"/>
 </g>
<g id="layer105" fill="#ea9131" stroke="none">
 <path d="M520 815 l0 -96 63 3 c34 2 61 6 60 11 -2 4 -3 45 -3 92 l0 85 -60 0 -60 0 0 -95z"/>
 <path d="M692 834 c5 -111 10 -114 199 -114 166 0 161 -3 135 70 l-13 35 -104 5 -104 5 -3 38 -3 37 -56 0 -55 0 4 -76z"/>
 <path d="M1120 825 c0 -47 -1 -88 -2 -92 -2 -5 27 -9 65 -11 l67 -3 0 96 0 95 -65 0 -65 0 0 -85z"/>
 <path d="M1490 883 c0 -16 -3 -58 -7 -95 l-6 -68 67 0 66 0 0 95 0 95 -60 0 c-59 0 -60 -1 -60 -27z"/>
 <path d="M1750 815 l0 -96 63 3 c34 2 61 6 60 11 -2 4 -3 45 -3 92 l0 85 -60 0 -60 0 0 -95z"/>
 </g>
<g id="layer106" fill="#e79e89" stroke="none">
 </g>
<g id="layer107" fill="#d1c5bc" stroke="none">
 </g>

</svg>