<!DOCTYPE svg PUBLIC "-//W3C//DTD SVG 20010904//EN" "http://www.w3.org/TR/2001/REC-SVG-20010904/DTD/svg10.dtd">
<svg version="1.0" xmlns="http://www.w3.org/2000/svg" width="160px" height="129px" viewBox="0 0 1600 1290" preserveAspectRatio="xMidYMid meet">
<g id="layer101" fill="#ffffff" stroke="none">
 <path d="M545 1195 c-106 -17 -253 -59 -307 -86 -54 -28 -68 -55 -89 -179 -42 -245 -43 -599 -3 -701 20 -48 41 -60 163 -89 300 -69 670 -68 995 5 186 42 191 54 191 445 0 216 -3 281 -18 354 -22 106 -38 141 -75 159 -40 21 -164 56 -272 79 -128 26 -455 34 -585 13z m585 -34 c170 -38 256 -68 283 -100 46 -55 62 -179 62 -476 -1 -370 -4 -379 -173 -419 -185 -43 -263 -51 -517 -51 -245 0 -301 6 -475 47 -102 25 -127 39 -145 82 -25 58 -37 272 -25 429 12 169 36 319 57 365 25 53 135 96 337 133 142 26 457 20 596 -10z"/>
 <path d="M625 1168 c-105 -11 -268 -51 -337 -81 -46 -21 -57 -31 -71 -66 -36 -90 -51 -226 -51 -471 -1 -256 7 -308 49 -336 31 -20 142 -49 275 -71 140 -23 462 -23 608 0 150 24 279 56 303 76 34 27 49 112 56 306 8 261 -22 488 -71 533 -24 23 -145 63 -261 86 -171 34 -339 42 -500 24z m-215 -578 l0 -140 -40 0 -40 0 0 140 0 140 40 0 40 0 0 -140z m276 132 c21 -14 34 -51 34 -96 0 -49 -7 -53 -57 -40 -18 5 -23 14 -23 41 l0 34 -57 -3 -58 -3 -3 -64 c-2 -45 1 -67 10 -72 7 -5 43 -9 80 -9 64 0 66 -1 76 -30 10 -28 9 -30 -15 -36 -45 -12 -184 3 -202 20 -12 12 -17 40 -20 102 -6 152 4 164 132 164 51 0 97 -4 103 -8z m304 -27 l0 -35 -70 0 -70 0 0 -105 0 -105 -42 0 -43 0 -1 140 0 140 113 0 113 0 0 -35z m300 15 c18 -18 20 -33 20 -139 0 -117 0 -119 -24 -125 -50 -12 -55 -2 -58 107 l-3 102 -57 3 -58 3 0 -104 c0 -114 -5 -124 -56 -111 -24 6 -24 8 -24 125 0 157 2 159 140 159 87 0 103 -3 120 -20z"/>
 </g>

</svg>